<svg xmlns="http://www.w3.org/2000/svg" viewBox="0 0 236 791" width="236" height="791"><defs></defs><g transform="matrix(1,0,0,1,-0.06920624,-0.00085449)">
<g>
	<g transform="matrix(1,0,0,1,118.5,396)">
		<g>
			<g>
				<path d="M-10.859329223632813,-395.59057611227036 C56.66767120361328,-401.005576133728 115.96466827392578,-352.020076751709 118.21967315673828,-282.8040771484375 C118.5146713256836,-273.7490768432617 118.33116912841797,-264.62457275390625 118.3321762084961,-255.55908203125 C118.3321762084961,-255.55908203125 118.31766510009766,-199.73007202148438 118.31766510009766,-199.73007202148438 C118.31766510009766,-199.73007202148438 118.30266571044922,-8.024078369140625 118.30266571044922,-8.024078369140625 C118.30266571044922,-8.024078369140625 118.32416534423828,194.22540283203125 118.32416534423828,194.22540283203125 C118.32416534423828,194.22540283203125 118.34766387939453,254.8154296875 118.34766387939453,254.8154296875 C118.35016632080078,265.36041259765625 118.79016876220703,281.34039306640625 117.62017059326172,291.3953857421875 C115.33367156982422,312.20538330078125 107.48217010498047,332.015380859375 94.89116668701172,348.74542236328125 C73.37866973876953,377.0103759765625 45.51917266845703,390.96539306640625 10.897666931152344,395.63043212890625 C-20.132827758789063,398.035400390625 -50.923828125,388.61041259765625 -75.29082870483398,369.24542236328125 C-99.3618278503418,349.70538330078125 -114.6168282032013,321.35040283203125 -117.65782809257507,290.49542236328125 C-118.79382809996605,279.5604248046875 -118.34232810139656,262.9154052734375 -118.34182810038328,251.62042236328125 C-118.34182810038328,251.62042236328125 -118.33432810008526,187.6453857421875 -118.33432810008526,187.6453857421875 C-118.33432810008526,187.6453857421875 -118.3493281006813,-21.196075439453125 -118.3493281006813,-21.196075439453125 C-118.3493281006813,-21.196075439453125 -118.33432810008526,-203.96507263183594 -118.33432810008526,-203.96507263183594 C-118.33432810008526,-203.96507263183594 -118.33982810378075,-256.8835754394531 -118.33982810378075,-256.8835754394531 C-118.33932810276747,-268.7085723876953 -118.76482811570168,-282.46507263183594 -117.24982810020447,-294.0105743408203 C-114.61582803726196,-315.49207305908203 -106.00182819366455,-335.80257415771484 -92.3883285522461,-352.6275749206543 C-72.0113296508789,-377.70207595825195 -42.73382568359375,-392.2895760536194 -10.859329223632813,-395.59057611227036 C-10.859329223632813,-395.59057611227036 -10.859329223632813,-395.59057611227036 -10.859329223632813,-395.59057611227036 Z" fill="#da291c"/>
			</g>
		</g>
		<g>
			<g transform="matrix(1.517956367,0,0,1.517956367,0.293731394,118.509394582)">
				<path d="M-14.295204162597656,-184.13473510742188 C-14.295204162597656,-184.13473510742188 -14.295204162597656,-199.7279510498047 -14.295204162597656,-199.7279510498047 C-14.295204162597656,-199.7279510498047 -29.88842010498047,-199.7279510498047 -29.88842010498047,-199.7279510498047 C-29.88842010498047,-199.7279510498047 -45.48164367675781,-199.7279510498047 -45.48164367675781,-199.7279510498047 C-45.48164367675781,-199.7279510498047 -45.48164367675781,-213.42288208007813 -45.48164367675781,-213.42288208007813 C-45.48164367675781,-213.42288208007813 -45.48164367675781,-227.11778259277344 -45.48164367675781,-227.11778259277344 C-45.48164367675781,-227.11778259277344 -29.88842010498047,-227.11778259277344 -29.88842010498047,-227.11778259277344 C-29.88842010498047,-227.11778259277344 -14.295204162597656,-227.11778259277344 -14.295204162597656,-227.11778259277344 C-14.295204162597656,-227.11778259277344 -14.295204162597656,-242.4398193359375 -14.295204162597656,-242.4398193359375 C-14.295204162597656,-242.4398193359375 -14.295204162597656,-257.76185607910156 -14.295204162597656,-257.76185607910156 C-14.295204162597656,-257.76185607910156 -0.5324859619140625,-257.76185607910156 -0.5324859619140625,-257.76185607910156 C-0.5324859619140625,-257.76185607910156 13.230232238769531,-257.76185607910156 13.230232238769531,-257.76185607910156 C13.230232238769531,-257.76185607910156 13.230232238769531,-242.4398193359375 13.230232238769531,-242.4398193359375 C13.230232238769531,-242.4398193359375 13.230232238769531,-227.11778259277344 13.230232238769531,-227.11778259277344 C13.230232238769531,-227.11778259277344 29.16242218017578,-227.11778259277344 29.16242218017578,-227.11778259277344 C29.16242218017578,-227.11778259277344 45.094627380371094,-227.11778259277344 45.094627380371094,-227.11778259277344 C45.094627380371094,-227.11778259277344 45.094627380371094,-213.42288208007813 45.094627380371094,-213.42288208007813 C45.094627380371094,-213.42288208007813 45.094627380371094,-199.7279510498047 45.094627380371094,-199.7279510498047 C45.094627380371094,-199.7279510498047 29.16242218017578,-199.7279510498047 29.16242218017578,-199.7279510498047 C29.16242218017578,-199.7279510498047 13.230232238769531,-199.7279510498047 13.230232238769531,-199.7279510498047 C13.230232238769531,-199.7279510498047 13.230232238769531,-184.13473510742188 13.230232238769531,-184.13473510742188 C13.230232238769531,-184.13473510742188 13.230232238769531,-168.54151916503906 13.230232238769531,-168.54151916503906 C13.230232238769531,-168.54151916503906 -0.5324859619140625,-168.54151916503906 -0.5324859619140625,-168.54151916503906 C-0.5324859619140625,-168.54151916503906 -14.295204162597656,-168.54151916503906 -14.295204162597656,-168.54151916503906 C-14.295204162597656,-168.54151916503906 -14.295204162597656,-184.13473510742188 -14.295204162597656,-184.13473510742188 Z" fill="#ffffff"/>
			</g>
		</g>
	</g>
</g></g></svg>